<svg width="25" height="25" viewBox="0 0 25 25" fill="none" xmlns="http://www.w3.org/2000/svg">
<path d="M3.40601 6.40625H5.40601H21.406" stroke="black" stroke-width="2" stroke-linecap="round" stroke-linejoin="round"/>
<path d="M19.406 6.40625V20.4062C19.406 20.9367 19.1953 21.4454 18.8202 21.8205C18.4451 22.1955 17.9364 22.4062 17.406 22.4062H7.40601C6.87557 22.4062 6.36686 22.1955 5.99179 21.8205C5.61672 21.4454 5.40601 20.9367 5.40601 20.4062V6.40625M8.40601 6.40625V4.40625C8.40601 3.87582 8.61672 3.36711 8.99179 2.99204C9.36687 2.61696 9.87557 2.40625 10.406 2.40625H14.406C14.9364 2.40625 15.4451 2.61696 15.8202 2.99204C16.1953 3.36711 16.406 3.87582 16.406 4.40625V6.40625" stroke="black" stroke-width="2" stroke-linecap="round" stroke-linejoin="round"/>
<path d="M10.406 11.4062V17.4062" stroke="black" stroke-width="2" stroke-linecap="round" stroke-linejoin="round"/>
<path d="M14.406 11.4062V17.4062" stroke="black" stroke-width="2" stroke-linecap="round" stroke-linejoin="round"/>
</svg>
