<svg width="25" height="25" viewBox="0 0 25 25" fill="none" xmlns="http://www.w3.org/2000/svg">
<path d="M3.73145 6.61597H5.73145H21.7314" stroke="#E0A100" stroke-width="2" stroke-linecap="round" stroke-linejoin="round"/>
<path d="M19.7314 6.61597V20.616C19.7314 21.1464 19.5207 21.6551 19.1457 22.0302C18.7706 22.4053 18.2619 22.616 17.7314 22.616H7.73145C7.20101 22.616 6.6923 22.4053 6.31723 22.0302C5.94216 21.6551 5.73145 21.1464 5.73145 20.616V6.61597M8.73145 6.61597V4.61597C8.73145 4.08553 8.94216 3.57683 9.31723 3.20175C9.6923 2.82668 10.201 2.61597 10.7314 2.61597H14.7314C15.2619 2.61597 15.7706 2.82668 16.1457 3.20175C16.5207 3.57683 16.7314 4.08553 16.7314 4.61597V6.61597" stroke="#E0A100" stroke-width="2" stroke-linecap="round" stroke-linejoin="round"/>
<path d="M10.7314 11.616V17.616" stroke="#E0A100" stroke-width="2" stroke-linecap="round" stroke-linejoin="round"/>
<path d="M14.7314 11.616V17.616" stroke="#E0A100" stroke-width="2" stroke-linecap="round" stroke-linejoin="round"/>
</svg>
