<svg width="31" height="31" viewBox="0 0 31 31" fill="none" xmlns="http://www.w3.org/2000/svg">
<rect width="31" height="31.0002" rx="15.5" fill="#F4F4F4"/>
<path d="M15.5 16C17.7091 16 19.5 14.2091 19.5 12C19.5 9.79086 17.7091 8 15.5 8C13.2909 8 11.5 9.79086 11.5 12C11.5 14.2091 13.2909 16 15.5 16Z" fill="black"/>
<path fill-rule="evenodd" clip-rule="evenodd" d="M15.5004 17C11.8304 17 8.82036 19.42 8.52436 22.5C8.49836 22.775 8.72436 23 9.00036 23H22.0004C22.0654 23.0017 22.1301 22.9898 22.1902 22.9649C22.2504 22.9401 22.3046 22.9029 22.3495 22.8558C22.3943 22.8087 22.4288 22.7526 22.4507 22.6914C22.4725 22.6301 22.4813 22.5649 22.4764 22.5C22.1804 19.42 19.1704 17 15.5004 17Z" fill="black" fill-opacity="0.25"/>
</svg>
